<?xml version="1.0" standalone="no"?>
<!DOCTYPE svg PUBLIC "-//W3C//DTD SVG 20010904//EN"
 "http://www.w3.org/TR/2001/REC-SVG-20010904/DTD/svg10.dtd">
<svg version="1.0" xmlns="http://www.w3.org/2000/svg"
 width="500.000000pt" height="500.000000pt" viewBox="0 0 500.000000 500.000000"
 preserveAspectRatio="xMidYMid meet">
<metadata>
Created by potrace 1.11, written by Peter Selinger 2001-2013
</metadata>
<g transform="translate(0.000000,500.000000) scale(0.100000,-0.100000)"
fill="#000000" stroke="none">
<path d="M2190 4784 c-785 -107 -1463 -593 -1809 -1297 -148 -301 -214 -547
-242 -902 -14 -169 -2 -379 32 -568 84 -469 313 -907 652 -1248 464 -467 1088
-716 1742 -696 201 6 334 24 506 67 332 84 664 249 929 464 186 150 394 390
523 601 506 833 452 1886 -138 2665 -345 456 -861 778 -1424 889 -117 23 -296
44 -333 40 l-28 -4 40 -50 c158 -198 208 -390 226 -860 l6 -170 289 -285 290
-285 -1 -172 0 -173 -310 0 c-170 0 -310 -1 -310 -3 0 -2 11 -41 25 -87 21
-70 25 -104 25 -212 l0 -128 -180 0 -180 0 0 270 0 270 -35 0 -35 0 0 -270 0
-270 -186 0 -187 0 7 134 c5 99 13 155 31 213 14 43 25 79 25 81 0 1 -139 2
-310 2 l-310 0 0 176 0 177 286 281 286 281 9 175 c25 489 67 652 220 848 l49
62 -37 -1 c-21 -1 -85 -7 -143 -15z m-536 -776 c22 -35 -27 -74 -59 -48 -18
15 -20 56 -2 64 22 9 50 1 61 -16z m1920 -74 c21 -20 20 -30 -5 -55 -18 -18
-23 -19 -42 -6 -28 18 -32 40 -12 61 21 20 39 20 59 0z m461 -564 c0 -29 -32
-41 -41 -16 -9 24 4 48 23 44 12 -2 18 -12 18 -28z m-3095 -405 c26 -32 -13
-81 -47 -59 -35 22 -23 74 17 74 10 0 23 -7 30 -15z m2940 -370 c26 -32 -13
-81 -47 -59 -35 22 -23 74 17 74 10 0 23 -7 30 -15z m-2402 -151 c21 -38 -21
-80 -53 -54 -15 13 -20 51 -8 63 12 13 52 7 61 -9z m975 -284 c3 -14 14 -20
32 -20 18 0 29 6 32 20 8 32 23 24 41 -22 111 -287 289 -498 473 -563 24 -9
98 -22 165 -30 197 -23 238 -45 419 -230 115 -117 136 -133 180 -146 60 -16
174 -16 247 1 76 17 202 81 286 146 80 61 80 59 4 -61 -326 -509 -864 -862
-1472 -967 -169 -30 -529 -32 -695 -5 -381 62 -722 213 -1030 456 -106 83
-281 264 -367 378 -111 147 -111 149 -41 114 164 -83 356 -91 500 -21 49 24
84 54 169 146 106 113 161 156 225 174 18 5 88 14 156 20 144 13 208 33 303
96 154 101 266 267 331 487 14 49 33 61 42 27z m954 -36 c3 -8 -2 -23 -11 -32
-15 -15 -17 -15 -33 0 -13 14 -14 20 -3 32 16 20 39 20 47 0z m-2333 -111 c8
-19 -17 -48 -33 -39 -12 8 -15 39 -4 49 12 12 31 7 37 -10z m3071 -99 c19 -20
16 -43 -7 -58 -21 -13 -51 2 -56 26 -3 16 23 48 38 48 5 0 16 -7 25 -16z
m-2340 -79 c0 -25 -4 -31 -27 -33 -19 -2 -30 3 -38 18 -15 28 4 52 39 48 22
-2 26 -8 26 -33z"/>
</g>
</svg>
